<svg xmlns="http://www.w3.org/2000/svg" viewBox="0 0 100 100" width="500" height="500" class="illustration"><defs><style>.cls-1{fill:#231f20;stroke-linejoin:bevel;}.cls-1,.cls-4{stroke:#231f20;stroke-width:1.5px;}.cls-2{fill:#0099f5;}.cls-3{fill:#f0457d;}.cls-4{fill:none;stroke-miterlimit:10;}</style></defs><g id="Layer_2" data-name="Layer 2"><path class="cls-1" d="M82.12,60.69c-6.27,4.21-14.25,4.12-19.77-.6a1.12,1.12,0,0,0-1.2-.17L54.74,63a1.12,1.12,0,0,1-1.33-1.75l4.69-5.34a1.11,1.11,0,0,0,.16-1.21A15.77,15.77,0,0,1,63.93,34.9a16,16,0,0,1,21,3.31A15.71,15.71,0,0,1,88.3,49.73S88.48,55.68,82.12,60.69Z"></path><path class="cls-1" d="M46.59,61.23,41.9,55.89a1.11,1.11,0,0,1-.16-1.21A15.77,15.77,0,0,0,36.07,34.9a16,16,0,0,0-21,3.31A15.78,15.78,0,0,0,37.65,60.09a1.12,1.12,0,0,1,1.2-.17L45.26,63A1.12,1.12,0,0,0,46.59,61.23Z"></path><path class="cls-2" d="M87.2,45.84a16.77,16.77,0,0,1-5.08,11"></path><path class="cls-2" d="M82.12,56.8a15.79,15.79,0,0,1-19.77-.59,1.1,1.1,0,0,0-1.2-.18l-6.41,3.06a1.12,1.12,0,0,1-1.33-1.75L58.1,52a1.1,1.1,0,0,0,.16-1.2A15.78,15.78,0,0,1,63.93,31a16,16,0,0,1,21,3.31A15.72,15.72,0,0,1,88.3,45.84"></path><path class="cls-3" d="M46.59,57.34,41.9,52a1.1,1.1,0,0,1-.16-1.2A15.78,15.78,0,0,0,36.07,31a16,16,0,0,0-21,3.31A15.79,15.79,0,0,0,37.65,56.21a1.1,1.1,0,0,1,1.2-.18l6.41,3.06A1.12,1.12,0,0,0,46.59,57.34Z"></path><path class="cls-4" d="M82.12,56.8a15.79,15.79,0,0,1-19.77-.59,1.1,1.1,0,0,0-1.2-.18l-6.41,3.06a1.12,1.12,0,0,1-1.33-1.75L58.1,52a1.1,1.1,0,0,0,.16-1.2A15.78,15.78,0,0,1,63.93,31,15.79,15.79,0,0,1,88,47.9"></path><path class="cls-4" d="M15.09,34.32A15.79,15.79,0,0,0,37.65,56.21a1.1,1.1,0,0,1,1.2-.18l6.41,3.06a1.12,1.12,0,0,0,1.33-1.75L41.9,52a1.1,1.1,0,0,1-.16-1.2A15.71,15.71,0,0,0,25,28.67"></path><circle class="cls-4" cx="22.12" cy="41.68" r="1.75"></circle><path class="cls-4" d="M22.31,50a6.17,6.17,0,0,1,10.8-1"></path><circle class="cls-4" cx="33.11" cy="41.68" r="1.75"></circle><circle class="cls-4" cx="66.43" cy="41.68" r="1.75"></circle><path class="cls-4" d="M77.41,46.23a6.16,6.16,0,0,1-10.79,1.05"></path><circle class="cls-4" cx="77.41" cy="41.68" r="1.75"></circle><polygon class="cls-1" points="45.1 61.67 46.88 62.07 46.88 58.06 45.1 61.67"></polygon><polygon class="cls-1" points="54.78 62.28 53.13 62.28 53.13 58.06 54.78 62.28"></polygon></g></svg>